<mxfile host="Electron" agent="Mozilla/5.0 (Windows NT 10.0; Win64; x64) AppleWebKit/537.36 (KHTML, like Gecko) draw.io/25.0.2 Chrome/128.0.6613.186 Electron/32.2.5 Safari/537.36" version="25.0.2">
  <diagram name="Страница — 1" id="Tnij_tf-bvqbp9oXf625">
    <mxGraphModel dx="511" dy="1115" grid="1" gridSize="10" guides="1" tooltips="1" connect="1" arrows="1" fold="1" page="1" pageScale="1" pageWidth="827" pageHeight="1169" math="0" shadow="0">
      <root>
        <mxCell id="0" />
        <mxCell id="1" parent="0" />
        <mxCell id="5BwpkP8-IFTiQETyoSL8-1" value="" style="ellipse;html=1;shape=startState;fillColor=#000000;strokeColor=#ff0000;" vertex="1" parent="1">
          <mxGeometry x="330" y="210" width="30" height="30" as="geometry" />
        </mxCell>
        <mxCell id="5BwpkP8-IFTiQETyoSL8-2" value="" style="edgeStyle=orthogonalEdgeStyle;html=1;verticalAlign=bottom;endArrow=open;endSize=8;strokeColor=#ff0000;rounded=0;" edge="1" parent="1" source="5BwpkP8-IFTiQETyoSL8-1">
          <mxGeometry relative="1" as="geometry">
            <mxPoint x="345" y="300" as="targetPoint" />
          </mxGeometry>
        </mxCell>
        <mxCell id="5BwpkP8-IFTiQETyoSL8-3" value="&lt;div&gt;вход&lt;/div&gt;&lt;div&gt;или регистрация&lt;/div&gt;" style="rounded=0;whiteSpace=wrap;html=1;" vertex="1" parent="1">
          <mxGeometry x="287.5" y="300" width="115" height="50" as="geometry" />
        </mxCell>
        <mxCell id="5BwpkP8-IFTiQETyoSL8-4" value="" style="edgeStyle=orthogonalEdgeStyle;rounded=0;orthogonalLoop=1;jettySize=auto;html=1;exitX=0.5;exitY=1;exitDx=0;exitDy=0;" edge="1" parent="1" source="5BwpkP8-IFTiQETyoSL8-3">
          <mxGeometry relative="1" as="geometry">
            <mxPoint x="350" y="350" as="sourcePoint" />
            <mxPoint x="345" y="410" as="targetPoint" />
          </mxGeometry>
        </mxCell>
        <mxCell id="5BwpkP8-IFTiQETyoSL8-11" value="" style="edgeStyle=orthogonalEdgeStyle;rounded=0;orthogonalLoop=1;jettySize=auto;html=1;" edge="1" parent="1" source="5BwpkP8-IFTiQETyoSL8-6" target="5BwpkP8-IFTiQETyoSL8-10">
          <mxGeometry relative="1" as="geometry">
            <Array as="points">
              <mxPoint x="500" y="450" />
            </Array>
          </mxGeometry>
        </mxCell>
        <mxCell id="5BwpkP8-IFTiQETyoSL8-15" value="Нет" style="edgeLabel;html=1;align=center;verticalAlign=middle;resizable=0;points=[];" vertex="1" connectable="0" parent="5BwpkP8-IFTiQETyoSL8-11">
          <mxGeometry x="-0.291" relative="1" as="geometry">
            <mxPoint as="offset" />
          </mxGeometry>
        </mxCell>
        <mxCell id="5BwpkP8-IFTiQETyoSL8-19" value="" style="edgeStyle=orthogonalEdgeStyle;rounded=0;orthogonalLoop=1;jettySize=auto;html=1;" edge="1" parent="1" source="5BwpkP8-IFTiQETyoSL8-6" target="5BwpkP8-IFTiQETyoSL8-18">
          <mxGeometry relative="1" as="geometry" />
        </mxCell>
        <mxCell id="5BwpkP8-IFTiQETyoSL8-6" value="регистрация?" style="rhombus;whiteSpace=wrap;html=1;" vertex="1" parent="1">
          <mxGeometry x="305" y="410" width="80" height="80" as="geometry" />
        </mxCell>
        <mxCell id="5BwpkP8-IFTiQETyoSL8-14" style="edgeStyle=orthogonalEdgeStyle;rounded=0;orthogonalLoop=1;jettySize=auto;html=1;entryX=1;entryY=0.5;entryDx=0;entryDy=0;" edge="1" parent="1" source="5BwpkP8-IFTiQETyoSL8-10" target="5BwpkP8-IFTiQETyoSL8-3">
          <mxGeometry relative="1" as="geometry">
            <Array as="points">
              <mxPoint x="494" y="325" />
            </Array>
          </mxGeometry>
        </mxCell>
        <mxCell id="5BwpkP8-IFTiQETyoSL8-10" value="зарегистрировать&lt;div&gt;пользователя&lt;/div&gt;" style="rounded=0;whiteSpace=wrap;html=1;" vertex="1" parent="1">
          <mxGeometry x="430" y="380" width="127.5" height="40" as="geometry" />
        </mxCell>
        <mxCell id="5BwpkP8-IFTiQETyoSL8-22" value="" style="edgeStyle=orthogonalEdgeStyle;rounded=0;orthogonalLoop=1;jettySize=auto;html=1;" edge="1" parent="1" source="5BwpkP8-IFTiQETyoSL8-18" target="5BwpkP8-IFTiQETyoSL8-21">
          <mxGeometry relative="1" as="geometry" />
        </mxCell>
        <mxCell id="5BwpkP8-IFTiQETyoSL8-23" value="да" style="edgeLabel;html=1;align=center;verticalAlign=middle;resizable=0;points=[];" vertex="1" connectable="0" parent="5BwpkP8-IFTiQETyoSL8-22">
          <mxGeometry x="-0.4379" relative="1" as="geometry">
            <mxPoint x="-1" as="offset" />
          </mxGeometry>
        </mxCell>
        <mxCell id="5BwpkP8-IFTiQETyoSL8-37" style="edgeStyle=orthogonalEdgeStyle;rounded=0;orthogonalLoop=1;jettySize=auto;html=1;entryX=0.5;entryY=0;entryDx=0;entryDy=0;" edge="1" parent="1" source="5BwpkP8-IFTiQETyoSL8-18" target="5BwpkP8-IFTiQETyoSL8-3">
          <mxGeometry relative="1" as="geometry">
            <Array as="points">
              <mxPoint x="120" y="545" />
              <mxPoint x="120" y="280" />
              <mxPoint x="345" y="280" />
            </Array>
          </mxGeometry>
        </mxCell>
        <mxCell id="5BwpkP8-IFTiQETyoSL8-38" value="нет" style="edgeLabel;html=1;align=center;verticalAlign=middle;resizable=0;points=[];" vertex="1" connectable="0" parent="5BwpkP8-IFTiQETyoSL8-37">
          <mxGeometry x="-0.8746" y="-1" relative="1" as="geometry">
            <mxPoint x="1" as="offset" />
          </mxGeometry>
        </mxCell>
        <mxCell id="5BwpkP8-IFTiQETyoSL8-18" value="данные&lt;div&gt;верны?&lt;/div&gt;" style="rhombus;whiteSpace=wrap;html=1;direction=south;" vertex="1" parent="1">
          <mxGeometry x="200" y="505" width="80" height="80" as="geometry" />
        </mxCell>
        <mxCell id="5BwpkP8-IFTiQETyoSL8-28" value="" style="edgeStyle=orthogonalEdgeStyle;rounded=0;orthogonalLoop=1;jettySize=auto;html=1;" edge="1" parent="1" source="5BwpkP8-IFTiQETyoSL8-21" target="5BwpkP8-IFTiQETyoSL8-27">
          <mxGeometry relative="1" as="geometry" />
        </mxCell>
        <mxCell id="5BwpkP8-IFTiQETyoSL8-29" value="" style="edgeStyle=orthogonalEdgeStyle;rounded=0;orthogonalLoop=1;jettySize=auto;html=1;" edge="1" parent="1" source="5BwpkP8-IFTiQETyoSL8-21" target="5BwpkP8-IFTiQETyoSL8-27">
          <mxGeometry relative="1" as="geometry" />
        </mxCell>
        <mxCell id="5BwpkP8-IFTiQETyoSL8-30" style="edgeStyle=orthogonalEdgeStyle;rounded=0;orthogonalLoop=1;jettySize=auto;html=1;entryX=0;entryY=0.5;entryDx=0;entryDy=0;" edge="1" parent="1" source="5BwpkP8-IFTiQETyoSL8-21" target="5BwpkP8-IFTiQETyoSL8-26">
          <mxGeometry relative="1" as="geometry" />
        </mxCell>
        <mxCell id="5BwpkP8-IFTiQETyoSL8-31" style="edgeStyle=orthogonalEdgeStyle;rounded=0;orthogonalLoop=1;jettySize=auto;html=1;entryX=0;entryY=0.5;entryDx=0;entryDy=0;" edge="1" parent="1" source="5BwpkP8-IFTiQETyoSL8-21" target="5BwpkP8-IFTiQETyoSL8-25">
          <mxGeometry relative="1" as="geometry" />
        </mxCell>
        <mxCell id="5BwpkP8-IFTiQETyoSL8-32" value="да" style="edgeLabel;html=1;align=center;verticalAlign=middle;resizable=0;points=[];" vertex="1" connectable="0" parent="5BwpkP8-IFTiQETyoSL8-31">
          <mxGeometry x="-0.92" y="3" relative="1" as="geometry">
            <mxPoint as="offset" />
          </mxGeometry>
        </mxCell>
        <mxCell id="5BwpkP8-IFTiQETyoSL8-44" style="edgeStyle=orthogonalEdgeStyle;rounded=0;orthogonalLoop=1;jettySize=auto;html=1;entryX=0.5;entryY=0;entryDx=0;entryDy=0;" edge="1" parent="1" source="5BwpkP8-IFTiQETyoSL8-21" target="5BwpkP8-IFTiQETyoSL8-42">
          <mxGeometry relative="1" as="geometry" />
        </mxCell>
        <mxCell id="5BwpkP8-IFTiQETyoSL8-45" style="edgeStyle=orthogonalEdgeStyle;rounded=0;orthogonalLoop=1;jettySize=auto;html=1;entryX=0.5;entryY=0;entryDx=0;entryDy=0;" edge="1" parent="1" source="5BwpkP8-IFTiQETyoSL8-21" target="5BwpkP8-IFTiQETyoSL8-43">
          <mxGeometry relative="1" as="geometry">
            <Array as="points">
              <mxPoint x="210" y="630" />
              <mxPoint x="210" y="705" />
              <mxPoint x="354" y="705" />
            </Array>
          </mxGeometry>
        </mxCell>
        <mxCell id="5BwpkP8-IFTiQETyoSL8-46" style="edgeStyle=orthogonalEdgeStyle;rounded=0;orthogonalLoop=1;jettySize=auto;html=1;entryX=0.5;entryY=0;entryDx=0;entryDy=0;" edge="1" parent="1" source="5BwpkP8-IFTiQETyoSL8-21" target="5BwpkP8-IFTiQETyoSL8-41">
          <mxGeometry relative="1" as="geometry">
            <Array as="points">
              <mxPoint x="210" y="630" />
              <mxPoint x="210" y="710" />
              <mxPoint x="70" y="710" />
            </Array>
          </mxGeometry>
        </mxCell>
        <mxCell id="5BwpkP8-IFTiQETyoSL8-21" value="студент?" style="rhombus;whiteSpace=wrap;html=1;" vertex="1" parent="1">
          <mxGeometry x="322.5" y="590" width="80" height="80" as="geometry" />
        </mxCell>
        <mxCell id="5BwpkP8-IFTiQETyoSL8-55" style="edgeStyle=orthogonalEdgeStyle;rounded=0;orthogonalLoop=1;jettySize=auto;html=1;" edge="1" parent="1" source="5BwpkP8-IFTiQETyoSL8-25">
          <mxGeometry relative="1" as="geometry">
            <mxPoint x="660" y="640" as="targetPoint" />
          </mxGeometry>
        </mxCell>
        <mxCell id="5BwpkP8-IFTiQETyoSL8-25" value="SubscribeToCourse" style="rounded=0;whiteSpace=wrap;html=1;" vertex="1" parent="1">
          <mxGeometry x="470" y="530" width="120" height="50" as="geometry" />
        </mxCell>
        <mxCell id="5BwpkP8-IFTiQETyoSL8-54" style="edgeStyle=orthogonalEdgeStyle;rounded=0;orthogonalLoop=1;jettySize=auto;html=1;exitX=1;exitY=0.5;exitDx=0;exitDy=0;" edge="1" parent="1" source="5BwpkP8-IFTiQETyoSL8-26">
          <mxGeometry relative="1" as="geometry">
            <mxPoint x="660" y="700" as="targetPoint" />
          </mxGeometry>
        </mxCell>
        <mxCell id="5BwpkP8-IFTiQETyoSL8-26" value="CancelCourse" style="rounded=0;whiteSpace=wrap;html=1;" vertex="1" parent="1">
          <mxGeometry x="470" y="605" width="120" height="50" as="geometry" />
        </mxCell>
        <mxCell id="5BwpkP8-IFTiQETyoSL8-53" style="edgeStyle=orthogonalEdgeStyle;rounded=0;orthogonalLoop=1;jettySize=auto;html=1;entryX=0.5;entryY=0;entryDx=0;entryDy=0;" edge="1" parent="1" source="5BwpkP8-IFTiQETyoSL8-27" target="5BwpkP8-IFTiQETyoSL8-47">
          <mxGeometry relative="1" as="geometry">
            <Array as="points">
              <mxPoint x="660" y="695" />
              <mxPoint x="660" y="910" />
            </Array>
          </mxGeometry>
        </mxCell>
        <mxCell id="5BwpkP8-IFTiQETyoSL8-27" value="GetCourses" style="rounded=0;whiteSpace=wrap;html=1;" vertex="1" parent="1">
          <mxGeometry x="470" y="670" width="120" height="50" as="geometry" />
        </mxCell>
        <mxCell id="5BwpkP8-IFTiQETyoSL8-48" style="edgeStyle=orthogonalEdgeStyle;rounded=0;orthogonalLoop=1;jettySize=auto;html=1;entryX=0.5;entryY=0;entryDx=0;entryDy=0;" edge="1" parent="1" source="5BwpkP8-IFTiQETyoSL8-41" target="5BwpkP8-IFTiQETyoSL8-47">
          <mxGeometry relative="1" as="geometry">
            <Array as="points">
              <mxPoint x="70" y="840" />
              <mxPoint x="354" y="840" />
            </Array>
          </mxGeometry>
        </mxCell>
        <mxCell id="5BwpkP8-IFTiQETyoSL8-41" value="NewCourse" style="rounded=0;whiteSpace=wrap;html=1;" vertex="1" parent="1">
          <mxGeometry x="10" y="740" width="120" height="40" as="geometry" />
        </mxCell>
        <mxCell id="5BwpkP8-IFTiQETyoSL8-51" style="edgeStyle=orthogonalEdgeStyle;rounded=0;orthogonalLoop=1;jettySize=auto;html=1;entryX=0.5;entryY=0;entryDx=0;entryDy=0;" edge="1" parent="1" source="5BwpkP8-IFTiQETyoSL8-42" target="5BwpkP8-IFTiQETyoSL8-47">
          <mxGeometry relative="1" as="geometry" />
        </mxCell>
        <mxCell id="5BwpkP8-IFTiQETyoSL8-52" style="edgeStyle=orthogonalEdgeStyle;rounded=0;orthogonalLoop=1;jettySize=auto;html=1;entryX=0.5;entryY=0;entryDx=0;entryDy=0;" edge="1" parent="1" source="5BwpkP8-IFTiQETyoSL8-42" target="5BwpkP8-IFTiQETyoSL8-47">
          <mxGeometry relative="1" as="geometry">
            <Array as="points">
              <mxPoint x="210" y="840" />
              <mxPoint x="354" y="840" />
            </Array>
          </mxGeometry>
        </mxCell>
        <mxCell id="5BwpkP8-IFTiQETyoSL8-42" value="RateStudent" style="rounded=0;whiteSpace=wrap;html=1;" vertex="1" parent="1">
          <mxGeometry x="150" y="740" width="120" height="40" as="geometry" />
        </mxCell>
        <mxCell id="5BwpkP8-IFTiQETyoSL8-50" style="edgeStyle=orthogonalEdgeStyle;rounded=0;orthogonalLoop=1;jettySize=auto;html=1;entryX=0.5;entryY=0;entryDx=0;entryDy=0;" edge="1" parent="1" source="5BwpkP8-IFTiQETyoSL8-43" target="5BwpkP8-IFTiQETyoSL8-47">
          <mxGeometry relative="1" as="geometry" />
        </mxCell>
        <mxCell id="5BwpkP8-IFTiQETyoSL8-43" value="MakeNote" style="rounded=0;whiteSpace=wrap;html=1;" vertex="1" parent="1">
          <mxGeometry x="294" y="740" width="120" height="40" as="geometry" />
        </mxCell>
        <mxCell id="5BwpkP8-IFTiQETyoSL8-47" value="" style="ellipse;html=1;shape=endState;fillColor=#000000;strokeColor=#ff0000;" vertex="1" parent="1">
          <mxGeometry x="339" y="910" width="30" height="30" as="geometry" />
        </mxCell>
      </root>
    </mxGraphModel>
  </diagram>
</mxfile>
